<mxfile host="app.diagrams.net" agent="Mozilla/5.0 (Windows NT 10.0; Win64; x64) AppleWebKit/537.36 (KHTML, like Gecko) Chrome/135.0.0.0 Safari/537.36" version="26.2.14">
  <diagram name="Page-1" id="WOFcPnI5TGs5-YS7WrwV">
    <mxGraphModel dx="2001" dy="1103" grid="0" gridSize="10" guides="1" tooltips="1" connect="1" arrows="1" fold="1" page="0" pageScale="1" pageWidth="827" pageHeight="1169" math="0" shadow="0">
      <root>
        <mxCell id="0" />
        <mxCell id="1" parent="0" />
        <mxCell id="Rcn4KJ0T3i9-BStFBduE-2" value="Admin" style="shape=umlActor;verticalLabelPosition=bottom;verticalAlign=top;html=1;outlineConnect=0;" parent="1" vertex="1">
          <mxGeometry x="-144" y="-68" width="30" height="60" as="geometry" />
        </mxCell>
        <mxCell id="Rcn4KJ0T3i9-BStFBduE-7" value="Visiteur" style="shape=umlActor;verticalLabelPosition=bottom;verticalAlign=top;html=1;outlineConnect=0;" parent="1" vertex="1">
          <mxGeometry x="-141" y="84" width="30" height="60" as="geometry" />
        </mxCell>
        <mxCell id="Rcn4KJ0T3i9-BStFBduE-8" value="Utilisateur" style="shape=umlActor;verticalLabelPosition=bottom;verticalAlign=top;html=1;outlineConnect=0;" parent="1" vertex="1">
          <mxGeometry x="-144" y="244" width="30" height="60" as="geometry" />
        </mxCell>
        <mxCell id="Rcn4KJ0T3i9-BStFBduE-9" value="" style="ellipse;whiteSpace=wrap;html=1;" parent="1" vertex="1">
          <mxGeometry x="14" y="-78" width="213" height="80" as="geometry" />
        </mxCell>
        <mxCell id="Rcn4KJ0T3i9-BStFBduE-10" value="Rechercher une recette" style="text;html=1;align=center;verticalAlign=middle;whiteSpace=wrap;rounded=0;" parent="1" vertex="1">
          <mxGeometry x="34" y="-58" width="178" height="30" as="geometry" />
        </mxCell>
        <mxCell id="Rcn4KJ0T3i9-BStFBduE-11" value="" style="ellipse;whiteSpace=wrap;html=1;" parent="1" vertex="1">
          <mxGeometry x="13" y="24" width="214" height="80" as="geometry" />
        </mxCell>
        <mxCell id="Rcn4KJ0T3i9-BStFBduE-12" value="Consulter une recette" style="text;html=1;align=center;verticalAlign=middle;whiteSpace=wrap;rounded=0;" parent="1" vertex="1">
          <mxGeometry x="32" y="54" width="172" height="30" as="geometry" />
        </mxCell>
        <mxCell id="Rcn4KJ0T3i9-BStFBduE-13" value="" style="ellipse;whiteSpace=wrap;html=1;" parent="1" vertex="1">
          <mxGeometry x="8" y="144" width="220" height="80" as="geometry" />
        </mxCell>
        <mxCell id="Rcn4KJ0T3i9-BStFBduE-14" value="GÃ©rer recettes" style="text;html=1;align=center;verticalAlign=middle;whiteSpace=wrap;rounded=0;" parent="1" vertex="1">
          <mxGeometry x="36" y="169" width="172" height="30" as="geometry" />
        </mxCell>
        <mxCell id="Rcn4KJ0T3i9-BStFBduE-17" style="edgeStyle=none;curved=1;rounded=0;orthogonalLoop=1;jettySize=auto;html=1;exitX=0.5;exitY=1;exitDx=0;exitDy=0;fontSize=12;startSize=8;endSize=8;" parent="1" edge="1">
          <mxGeometry relative="1" as="geometry">
            <mxPoint x="113" y="299" as="sourcePoint" />
            <mxPoint x="113" y="299" as="targetPoint" />
          </mxGeometry>
        </mxCell>
        <mxCell id="Rcn4KJ0T3i9-BStFBduE-18" value="" style="ellipse;whiteSpace=wrap;html=1;" parent="1" vertex="1">
          <mxGeometry x="39" y="247" width="182" height="80" as="geometry" />
        </mxCell>
        <mxCell id="Rcn4KJ0T3i9-BStFBduE-19" value="s&#39;authentifier" style="text;html=1;align=center;verticalAlign=middle;whiteSpace=wrap;rounded=0;" parent="1" vertex="1">
          <mxGeometry x="82.5" y="274" width="81" height="30" as="geometry" />
        </mxCell>
        <mxCell id="Rcn4KJ0T3i9-BStFBduE-20" value="" style="ellipse;whiteSpace=wrap;html=1;" parent="1" vertex="1">
          <mxGeometry x="14" y="348" width="246" height="80" as="geometry" />
        </mxCell>
        <mxCell id="Rcn4KJ0T3i9-BStFBduE-21" value="Laisser Commentaire" style="text;html=1;align=center;verticalAlign=middle;whiteSpace=wrap;rounded=0;" parent="1" vertex="1">
          <mxGeometry x="52" y="373" width="176" height="30" as="geometry" />
        </mxCell>
        <mxCell id="Rcn4KJ0T3i9-BStFBduE-23" value="" style="endArrow=none;html=1;rounded=0;fontSize=12;startSize=8;endSize=8;curved=1;" parent="1" edge="1">
          <mxGeometry width="50" height="50" relative="1" as="geometry">
            <mxPoint x="519" y="463" as="sourcePoint" />
            <mxPoint x="522" y="-128" as="targetPoint" />
          </mxGeometry>
        </mxCell>
        <mxCell id="Rcn4KJ0T3i9-BStFBduE-24" value="" style="endArrow=none;html=1;rounded=0;fontSize=12;startSize=8;endSize=8;curved=1;" parent="1" edge="1">
          <mxGeometry width="50" height="50" relative="1" as="geometry">
            <mxPoint x="-18" y="466" as="sourcePoint" />
            <mxPoint x="519" y="464" as="targetPoint" />
          </mxGeometry>
        </mxCell>
        <mxCell id="Rcn4KJ0T3i9-BStFBduE-25" value="" style="endArrow=none;html=1;rounded=0;fontSize=12;startSize=8;endSize=8;curved=1;" parent="1" edge="1">
          <mxGeometry width="50" height="50" relative="1" as="geometry">
            <mxPoint x="-17" y="471" as="sourcePoint" />
            <mxPoint x="-17" y="-133" as="targetPoint" />
          </mxGeometry>
        </mxCell>
        <mxCell id="Rcn4KJ0T3i9-BStFBduE-27" value="" style="endArrow=none;html=1;rounded=0;fontSize=12;startSize=8;endSize=8;curved=1;" parent="1" edge="1">
          <mxGeometry width="50" height="50" relative="1" as="geometry">
            <mxPoint x="-18" y="-130" as="sourcePoint" />
            <mxPoint x="523" y="-127" as="targetPoint" />
          </mxGeometry>
        </mxCell>
        <mxCell id="Rcn4KJ0T3i9-BStFBduE-31" value="" style="endArrow=none;html=1;rounded=0;fontSize=12;startSize=8;endSize=8;curved=1;" parent="1" source="Rcn4KJ0T3i9-BStFBduE-7" edge="1">
          <mxGeometry width="50" height="50" relative="1" as="geometry">
            <mxPoint x="-25" y="31" as="sourcePoint" />
            <mxPoint x="25" y="-19" as="targetPoint" />
          </mxGeometry>
        </mxCell>
        <mxCell id="Rcn4KJ0T3i9-BStFBduE-32" value="" style="endArrow=none;html=1;rounded=0;fontSize=12;startSize=8;endSize=8;curved=1;" parent="1" source="Rcn4KJ0T3i9-BStFBduE-7" edge="1">
          <mxGeometry width="50" height="50" relative="1" as="geometry">
            <mxPoint x="-36" y="113" as="sourcePoint" />
            <mxPoint x="14" y="63" as="targetPoint" />
          </mxGeometry>
        </mxCell>
        <mxCell id="Rcn4KJ0T3i9-BStFBduE-33" value="" style="endArrow=none;html=1;rounded=0;fontSize=12;startSize=8;endSize=8;curved=1;entryX=0.062;entryY=0.719;entryDx=0;entryDy=0;entryPerimeter=0;" parent="1" target="Rcn4KJ0T3i9-BStFBduE-9" edge="1">
          <mxGeometry width="50" height="50" relative="1" as="geometry">
            <mxPoint x="-125" y="-25" as="sourcePoint" />
            <mxPoint x="-75" y="-75" as="targetPoint" />
          </mxGeometry>
        </mxCell>
        <mxCell id="Rcn4KJ0T3i9-BStFBduE-34" value="" style="endArrow=none;html=1;rounded=0;fontSize=12;startSize=8;endSize=8;curved=1;exitX=0.051;exitY=0.324;exitDx=0;exitDy=0;exitPerimeter=0;entryX=0.633;entryY=0.767;entryDx=0;entryDy=0;entryPerimeter=0;" parent="1" source="Rcn4KJ0T3i9-BStFBduE-11" target="Rcn4KJ0T3i9-BStFBduE-2" edge="1">
          <mxGeometry width="50" height="50" relative="1" as="geometry">
            <mxPoint x="-160" y="37" as="sourcePoint" />
            <mxPoint x="-110" y="-13" as="targetPoint" />
          </mxGeometry>
        </mxCell>
        <mxCell id="Rcn4KJ0T3i9-BStFBduE-35" value="" style="endArrow=none;html=1;rounded=0;fontSize=12;startSize=8;endSize=8;curved=1;exitX=0.5;exitY=0.5;exitDx=0;exitDy=0;exitPerimeter=0;" parent="1" source="Rcn4KJ0T3i9-BStFBduE-2" edge="1">
          <mxGeometry width="50" height="50" relative="1" as="geometry">
            <mxPoint x="-41" y="228" as="sourcePoint" />
            <mxPoint x="9" y="178" as="targetPoint" />
          </mxGeometry>
        </mxCell>
        <mxCell id="Rcn4KJ0T3i9-BStFBduE-38" value="" style="endArrow=none;html=1;rounded=0;fontSize=12;startSize=8;endSize=8;curved=1;" parent="1" edge="1">
          <mxGeometry width="50" height="50" relative="1" as="geometry">
            <mxPoint x="36" y="289" as="sourcePoint" />
            <mxPoint x="-117" y="-12" as="targetPoint" />
          </mxGeometry>
        </mxCell>
        <mxCell id="Rcn4KJ0T3i9-BStFBduE-39" value="" style="endArrow=none;html=1;rounded=0;fontSize=12;startSize=8;endSize=8;curved=1;exitX=0.023;exitY=0.327;exitDx=0;exitDy=0;exitPerimeter=0;" parent="1" source="Rcn4KJ0T3i9-BStFBduE-20" edge="1">
          <mxGeometry width="50" height="50" relative="1" as="geometry">
            <mxPoint x="-172" y="35" as="sourcePoint" />
            <mxPoint x="-122" y="-15" as="targetPoint" />
          </mxGeometry>
        </mxCell>
        <mxCell id="Rcn4KJ0T3i9-BStFBduE-42" value="" style="endArrow=none;html=1;rounded=0;fontSize=12;startSize=8;endSize=8;curved=1;" parent="1" source="Rcn4KJ0T3i9-BStFBduE-8" edge="1">
          <mxGeometry width="50" height="50" relative="1" as="geometry">
            <mxPoint x="-15" y="37" as="sourcePoint" />
            <mxPoint x="35" y="-13" as="targetPoint" />
          </mxGeometry>
        </mxCell>
        <mxCell id="Rcn4KJ0T3i9-BStFBduE-43" value="" style="endArrow=none;html=1;rounded=0;fontSize=12;startSize=8;endSize=8;curved=1;exitX=0.5;exitY=0.5;exitDx=0;exitDy=0;exitPerimeter=0;" parent="1" source="Rcn4KJ0T3i9-BStFBduE-8" edge="1">
          <mxGeometry width="50" height="50" relative="1" as="geometry">
            <mxPoint x="-22" y="135" as="sourcePoint" />
            <mxPoint x="28" y="85" as="targetPoint" />
          </mxGeometry>
        </mxCell>
        <mxCell id="Rcn4KJ0T3i9-BStFBduE-44" value="" style="endArrow=none;html=1;rounded=0;fontSize=12;startSize=8;endSize=8;curved=1;exitX=0.5;exitY=0.5;exitDx=0;exitDy=0;exitPerimeter=0;" parent="1" source="Rcn4KJ0T3i9-BStFBduE-8" edge="1">
          <mxGeometry width="50" height="50" relative="1" as="geometry">
            <mxPoint x="-7" y="333" as="sourcePoint" />
            <mxPoint x="43" y="283" as="targetPoint" />
          </mxGeometry>
        </mxCell>
        <mxCell id="Rcn4KJ0T3i9-BStFBduE-46" value="" style="endArrow=none;html=1;rounded=0;fontSize=12;startSize=8;endSize=8;curved=1;exitX=1;exitY=1;exitDx=0;exitDy=0;exitPerimeter=0;" parent="1" source="Rcn4KJ0T3i9-BStFBduE-8" edge="1">
          <mxGeometry width="50" height="50" relative="1" as="geometry">
            <mxPoint x="-34" y="442" as="sourcePoint" />
            <mxPoint x="16" y="392" as="targetPoint" />
          </mxGeometry>
        </mxCell>
        <mxCell id="Rcn4KJ0T3i9-BStFBduE-47" value="" style="endArrow=none;html=1;rounded=0;fontSize=12;startSize=8;endSize=8;curved=1;" parent="1" source="Rcn4KJ0T3i9-BStFBduE-8" edge="1" target="Rcn4KJ0T3i9-BStFBduE-13">
          <mxGeometry width="50" height="50" relative="1" as="geometry">
            <mxPoint x="-13" y="544" as="sourcePoint" />
            <mxPoint x="37" y="494" as="targetPoint" />
          </mxGeometry>
        </mxCell>
        <mxCell id="jKG6hT8cJQJ02nJRuF0Y-2" value="Ajouter Recettes" style="ellipse;whiteSpace=wrap;html=1;" vertex="1" parent="1">
          <mxGeometry x="357" y="113" width="120" height="45" as="geometry" />
        </mxCell>
        <mxCell id="jKG6hT8cJQJ02nJRuF0Y-3" value="Modifier Recettes" style="ellipse;whiteSpace=wrap;html=1;" vertex="1" parent="1">
          <mxGeometry x="361" y="179" width="120" height="45" as="geometry" />
        </mxCell>
        <mxCell id="jKG6hT8cJQJ02nJRuF0Y-4" value="Supprimer Recettes" style="ellipse;whiteSpace=wrap;html=1;" vertex="1" parent="1">
          <mxGeometry x="368" y="244" width="120" height="45" as="geometry" />
        </mxCell>
        <mxCell id="jKG6hT8cJQJ02nJRuF0Y-5" value="" style="endArrow=none;dashed=1;html=1;dashPattern=1 3;strokeWidth=2;rounded=0;fontSize=12;startSize=8;endSize=8;curved=1;entryX=0;entryY=0.5;entryDx=0;entryDy=0;" edge="1" parent="1" target="jKG6hT8cJQJ02nJRuF0Y-2">
          <mxGeometry width="50" height="50" relative="1" as="geometry">
            <mxPoint x="228" y="179" as="sourcePoint" />
            <mxPoint x="278" y="129" as="targetPoint" />
          </mxGeometry>
        </mxCell>
        <mxCell id="jKG6hT8cJQJ02nJRuF0Y-7" value="" style="endArrow=none;dashed=1;html=1;dashPattern=1 3;strokeWidth=2;rounded=0;fontSize=12;startSize=8;endSize=8;curved=1;entryX=0.005;entryY=0.289;entryDx=0;entryDy=0;entryPerimeter=0;" edge="1" parent="1" target="jKG6hT8cJQJ02nJRuF0Y-4">
          <mxGeometry width="50" height="50" relative="1" as="geometry">
            <mxPoint x="224" y="196" as="sourcePoint" />
            <mxPoint x="274" y="146" as="targetPoint" />
          </mxGeometry>
        </mxCell>
        <mxCell id="jKG6hT8cJQJ02nJRuF0Y-8" value="&amp;lt;extend&amp;gt;" style="text;html=1;align=center;verticalAlign=middle;whiteSpace=wrap;rounded=0;" vertex="1" parent="1">
          <mxGeometry x="271" y="125" width="60" height="30" as="geometry" />
        </mxCell>
        <mxCell id="jKG6hT8cJQJ02nJRuF0Y-10" value="&amp;lt;extend&amp;gt;" style="text;html=1;align=center;verticalAlign=middle;whiteSpace=wrap;rounded=0;" vertex="1" parent="1">
          <mxGeometry x="269" y="236" width="60" height="30" as="geometry" />
        </mxCell>
        <mxCell id="jKG6hT8cJQJ02nJRuF0Y-11" value="" style="endArrow=none;dashed=1;html=1;dashPattern=1 3;strokeWidth=2;rounded=0;fontSize=12;startSize=8;endSize=8;curved=1;entryX=0;entryY=0.5;entryDx=0;entryDy=0;" edge="1" parent="1" target="jKG6hT8cJQJ02nJRuF0Y-3">
          <mxGeometry width="50" height="50" relative="1" as="geometry">
            <mxPoint x="228" y="194" as="sourcePoint" />
            <mxPoint x="352" y="213" as="targetPoint" />
          </mxGeometry>
        </mxCell>
        <mxCell id="jKG6hT8cJQJ02nJRuF0Y-13" value="&amp;lt;extend&amp;gt;" style="text;html=1;align=center;verticalAlign=middle;whiteSpace=wrap;rounded=0;" vertex="1" parent="1">
          <mxGeometry x="294" y="173" width="60" height="30" as="geometry" />
        </mxCell>
        <mxCell id="jKG6hT8cJQJ02nJRuF0Y-14" style="edgeStyle=none;curved=1;rounded=0;orthogonalLoop=1;jettySize=auto;html=1;exitX=0.5;exitY=1;exitDx=0;exitDy=0;fontSize=12;startSize=8;endSize=8;" edge="1" parent="1" source="jKG6hT8cJQJ02nJRuF0Y-13" target="jKG6hT8cJQJ02nJRuF0Y-13">
          <mxGeometry relative="1" as="geometry" />
        </mxCell>
      </root>
    </mxGraphModel>
  </diagram>
</mxfile>
